<svg version="1" xmlns="http://www.w3.org/2000/svg" width="413.333" height="413.333" viewBox="0 0 310.000000 310.000000"><path d="M0 158.4V261h55.3c30.3 0 60.5-.5 67-1.1 43.6-3.8 65.8-22.1 66-54.4.2-15.6-4.1-27-14-37.1-4.5-4.6-13.9-10.6-19.5-12.4-2.1-.6-3.8-1.3-3.8-1.5 0-.2 1.9-1.4 4.3-2.8 6.7-4 14.4-12.8 18.5-21.4 3.7-7.8 3.7-7.9 3.7-20.8 0-12.7-.1-13.2-3.4-20.2-2.4-5.2-5.1-8.9-9.5-13.1-9.7-9.3-18.3-13.5-35.9-17.4-8.6-2-13.1-2.1-68.9-2.5L0 55.8v102.6zM103.4 92c10.4 1.2 18 4.5 22.5 9.5 8.3 9.5 5.8 26.1-4.9 32.7-8.4 5.1-13.6 5.8-45.2 5.8H47v-23.8c0-13.1.3-24.2.7-24.5 1-1.1 45.8-.8 55.7.3zm9.1 83c20.4 2.4 29.5 11.4 28.2 27.8-.7 8.9-4 13.6-12.7 17.9-8.8 4.5-19.5 5.5-53.5 5.1l-27-.3-.3-25.8L47 174h28.2c15.6 0 32.4.5 37.3 1z"/></svg>